<?xml version="1.0" encoding="UTF-8" standalone="no"?>
<!-- Created with Inkscape (http://www.inkscape.org/) -->
<svg id="svg2" xmlns:rdf="http://www.w3.org/1999/02/22-rdf-syntax-ns#" xmlns="http://www.w3.org/2000/svg" height="300" width="287" version="1.1" xmlns:cc="http://creativecommons.org/ns#" xmlns:dc="http://purl.org/dc/elements/1.1/">
 <metadata id="metadata7">
  <rdf:RDF>
   <cc:Work rdf:about="">
    <dc:format>image/svg+xml</dc:format>
    <dc:type rdf:resource="http://purl.org/dc/dcmitype/StillImage"/>
    <dc:title/>
   </cc:Work>
  </rdf:RDF>
 </metadata>
 <g id="layer1" transform="translate(0 -752.36)">
  <g id="g1163" transform="translate(-1319.2 410.96)">
   <path id="path63" d="m401.43 305.22a244.29 244.29 0 1 1 -488.57 0 244.29 244.29 0 1 1 488.57 -6e-14z" transform="matrix(.55882 0 0 .55882 1374.9 313.86)" stroke="#b7985e" stroke-width="5.3684" fill="#0039a6"/>
   <path id="path65" d="m401.43 305.22a244.29 244.29 0 1 1 -488.57 0 244.29 244.29 0 1 1 488.57 -6e-14z" transform="matrix(.40615 0 0 .40615 1398.9 360.45)" stroke="#b7985e" stroke-width="7.3864" fill="#fff"/>
   <path id="rect14795" d="m1444.8 404.71v36.843l-31.919-18.434-17.815 30.855 31.919 18.434-31.919 18.409 17.815 30.855 31.919-18.434v36.867h35.63v-36.843l31.894 18.409 17.815-30.855-31.919-18.409 31.919-18.434-17.815-30.855-31.894 18.409v-36.818h-35.63z" stroke="#b7985e" stroke-width="3" fill="#0039a6"/>
   <path id="path2161" d="m1458.6 419.55c-0.085643-2.5827 2.2542-4.9918 4.7547-4.9918 1.789 0 3.9919 1.3609 3.9401 3.6295-0.62563 27.415-2.2913 83.031-2.9206 110.71-0.019027 0.83692-1.073 0.466-1.1113-0.39251-1.2228-27.449-3.7419-81.176-4.6629-108.95z" fill-rule="evenodd" stroke="#0039a6" stroke-width=".5" fill="#b7985e"/>
   <path id="path4102" d="m1459.8 423.26c1.9839 0 2.8747 1.2063 4.102 2.2677 1.1856 1.0252 2.1152 1.9632 2.1152 2.9719 0 1.06-0.77811 0.74238-1.6026 1.1317-0.43431 0.20508-0.39555 0.64825-1.1049 0.64825-1.7051 0-2.384-1.6045-4.7131-1.6045-1.9194 0-4.4123 2.2999-4.4123 6.5181 0 6.3707 2.4568 9.2256 5.3649 11.432l0.30084 7.571c-3.1086-1.3036-11.131-8.3732-11.131-18.201 0-8.5526 5.5528-12.735 11.081-12.735z" fill-rule="evenodd" stroke="#0039a6" stroke-width=".5" fill="#b7985e"/>
   <path id="path5075" fill-rule="evenodd" fill="#0039a6" d="m1460.6 425.39c1.4183-0.22484 1.2756 0.62724 1.9053 1.1783-1.4556 0.04326-1.7782-0.56729-1.9053-1.1783z"/>
   <path id="path8971" d="m1466.6 449.79-0.20056 7.22c0 4.4137-11.682 12.158-11.682 20.056 0 6.0825 4.8886 9.9777 6.6936 10.88l-0.22563-6.3677s-2.2061-1.4878-2.2061-4.0111c0-3.5707 13.437-12.767 13.437-19.805 0-4.9904-3.4095-6.8524-5.8161-7.9721z" fill-rule="evenodd" stroke="#0039a6" stroke-width=".5" fill="#b7985e"/>
   <path id="path11880" d="m1465.6 485.11s4.5877 3.0331 4.5877 6.844c0 3.2602-2.5 6.2425-5.4534 9.3267-3.4501 3.6029-4.1787 8.1132-2.1427 12.835l0.17549 3.8607c-1.4791-1.2033-3.8106-4.9619-3.8106-11.231 0-7.5463 6.468-9.8166 6.468-16.772l0.17549-4.8635z" fill-rule="evenodd" stroke="#0039a6" stroke-width=".5" fill="#b7985e"/>
   <path id="path12851" d="m1464.7 516.55s2.1309 1.1465 2.1309 4.1365c0 2.8145-3.524 5.3846-4.0613 5.766-0.52044 0.36948-0.7199-0.1117-0.30084-0.5014 0.43269-0.40237 2.2061-2.779 2.2061-5.5153l0.025068-3.8858z" fill-rule="evenodd" stroke="#0039a6" stroke-width=".5" fill="#b7985e"/>
   <path id="path108" d="m1524.8 551.51c-26.281 0.00078459-35.835 13.677-62.11 13.677-26.281-0.00078459-35.831-13.661-62.11-13.66-10.832 0.00059058-18.811 2.3203-26.3 5.049v23.239c7.4889-2.7288 15.468-5.0485 26.3-5.049 26.279-0.0006485 35.829 13.659 62.11 13.66 26.276 0 35.829-13.677 62.11-13.677 10.833 0.00032342 18.81 2.3367 26.3 5.0663v-23.239c-7.4901-2.7297-15.467-5.066-26.3-5.0663z" stroke="#b7985e" stroke-width="3" fill="#dc281e"/>
   <path id="path113" d="m1524.8 574.75c-26.281 0.00078459-35.835 13.677-62.11 13.677-26.281-0.00078459-35.831-13.661-62.11-13.66-10.832 0.00059058-18.811 2.3203-26.3 5.049v23.239c7.4889-2.7288 15.468-5.0485 26.3-5.049 26.279-0.0006485 35.829 13.659 62.11 13.66 26.276 0 35.829-13.677 62.11-13.677 10.833 0.00032342 18.81 2.3367 26.3 5.0663v-23.239c-7.4901-2.7297-15.467-5.066-26.3-5.0663z" stroke="#b7985e" stroke-width="3" fill="#fff"/>
   <path id="path115" d="m1524.8 597.99c-26.281 0.00078459-35.835 13.677-62.11 13.677-26.281-0.00078459-35.831-13.661-62.11-13.66-10.832 0.00059058-18.811 2.3203-26.3 5.049v23.239c7.4889-2.7288 15.468-5.0485 26.3-5.049 26.279-0.0006485 35.829 13.659 62.11 13.66 26.276 0 35.829-13.677 62.11-13.677 10.833 0.00032342 18.81 2.3367 26.3 5.0663v-23.239c-7.4901-2.7297-15.467-5.066-26.3-5.0663z" stroke="#b7985e" stroke-width="3" fill="#009a3d"/>
   <path id="path261" fill="#b7985e" d="m1337.6 444.8c0.066281 3.1306 0.24993 6.226 0.54515 9.2789 0.5947-0.2089 1.1898-0.41344 1.7851-0.61361-0.030788-3.0783 0.053733-6.1833 0.25809-9.3072-0.86272 0.20554-1.7255 0.4195-2.5883 0.64189zm255.35 44.56c-0.62985-2.4235-1.3279-4.81-2.0918-7.1553-0.19243-0.58837-0.38892-1.174-0.58939-1.757-0.52978 0.34166-1.0609 0.67915-1.5934 1.0125 0.061913 0.24781 0.12309 0.49599 0.18354 0.74453 0.66691 2.7528 1.2415 5.5481 1.7215 8.3796 0.7917-0.39975 1.5816-0.80785 2.3695-1.2243zm-79.726-126.68c-0.02919 0.0094821-0.058372 0.018974-0.087547 0.028476-1.6325 0.53172-3.2403 1.0952-4.8226 1.6889 1.1761 0.4553 2.3455 0.92858 3.5078 1.4198 0.011239 0.0047563 0.022477 0.0095142 0.033714 0.014274 2.1432-0.33595 4.3167-0.61459 6.5172-0.83423-1.6983-0.80951-3.4149-1.5822-5.1485-2.3171zm6.7835 3.1106c-1.6886 0.44301-3.3549 0.91949-4.9976 1.4285 1.1579 0.5285 2.3074 1.0745 3.4483 1.6378 2.1579-0.21169 4.3426-0.36502 6.551-0.4583-1.6476-0.9052-3.3153-1.7748-5.0017-2.608zm-163.82 181.89c1.7385 2.8367 3.8897 4.6404 6.2956 5.3972 2.7433 0.86489 5.3147 0.30634 7.7008-1.4872 1.7754-1.3345 2.9174-2.989 3.539-4.9143 0.45224-1.4481 0.55029-2.8899 0.29985-4.3492-0.25043-1.4593-0.84961-2.936-1.7956-4.4786-1.2303-2.0063-2.6991-3.4729-4.4491-4.4041-0.36366-0.18914-0.72709-0.32993-1.1162-0.45932-2.4561-0.8924-4.9788-0.78673-7.5916 0.50038-2.0074 0.98888-3.459 2.4346-4.2847 4.4026-0.59349 1.4485-0.78482 3.0079-0.55638 4.6527s0.8769 3.3751 1.9584 5.1397zm-17.106-46.852c0.32735 2.148 1.0117 3.9774 1.9935 5.4493 1.5355 2.3408 3.388 3.2105 5.4644 2.7287 0.58833-0.1365 1.0993-0.35035 1.5574-0.65758 1.3631-0.96969 2.0486-2.8906 2.1942-5.7402 0.01743-1.8283 0.079121-3.648 0.1846-5.4567 0.17264-1.5068 0.63709-2.2829 1.3605-2.3664 0.33524-0.038708 0.65538 0.015791 0.94444 0.1916 0.77355 0.49183 1.256 1.5768 1.5042 3.2342 0.39445 2.6336-0.12597 4.3943-1.695 5.348 0.63301 1.6444 1.3026 3.2677 2.0071 4.8682 0.91189-0.53439 1.6242-1.2628 2.1742-2.206 1.1856-2.0695 1.4554-4.7061 0.93962-8.0485-0.30542-1.9791-0.83097-3.7052-1.5924-5.2044-1.3271-2.658-3.1041-3.9864-5.4972-3.8349-1.8244 0.13902-3.2011 1.2925-4.0456 3.5522-0.099206 0.27881-0.19572 0.59504-0.28532 0.94861-0.25599 1.0102-0.46918 2.9331-0.47454 5.786-0.0081963 0.42653 0.0026816 0.72967 0.0081437 0.87925-0.024402 1.9094-0.4067 2.9349-1.2107 3.0805-1.1186 0.20254-1.9099-0.86648-2.2706-3.2604-0.01928-0.12796-0.038357-0.25596-0.057231-0.38398-0.23447-2.0777 0.33309-3.5295 1.619-4.3298-0.59195-1.6552-1.1492-3.3318-1.6703-5.0288-1.3766 0.81792-2.3583 2.103-2.9025 3.8546-0.54421 1.7516-0.65036 3.9698-0.25004 6.5966zm11.616-74.257c-1.3925 2.7943-1.8422 5.4174-1.3968 7.7475 2.4112e-8 1.262e-7 4.8242e-8 2.5236e-7 7.2371e-8 3.7853e-7 0.036775 0.1923 0.07964 0.38266 0.12856 0.57104 0.72948 2.8154 2.6218 4.7231 5.4903 5.8268 1.9068 0.73366 3.7454 0.89389 5.5071 0.5574 1.0283-0.19884 1.963-0.55246 2.8114-1.0602 1.6672-0.99984 2.9962-2.5943 4.0968-4.828 0.05373-0.10905 0.10765-0.21801 0.16176-0.32687 0.9951-2.1617 1.2413-4.2611 0.70424-6.3719 0.73674 0.12241 1.4718 0.24959 2.2052 0.38153 0.40996-0.70922 0.82814-1.4138 1.2544-2.1136l-8.3579-5.0901c-1.7866 2.9334-3.4435 5.9454-4.9629 9.0248l3.0621 1.5108c0.67796-1.3741 1.3843-2.7346 2.1181-4.0802l0.18279 0.09968c0.49914 0.27219 0.86411 0.66153 1.1003 1.1592 0.51272 1.0701 0.39453 2.3014-0.32383 3.7395-0.44127 0.88338-0.97649 1.5402-1.6574 1.9851-1.4655 0.94311-3.3277 0.94372-5.5828-0.063084-0.56783-0.25351-1.0976-0.53924-1.5763-0.86128-1.2424-0.81205-2.0354-1.729-2.3657-2.7564-0.33029-1.0274-0.1977-2.1653 0.40865-3.3859 0.28334-0.57036 0.60926-1.0666 0.98014-1.4763 1.1949-1.2724 2.5948-1.5893 4.1365-1.0023 0.73842-1.7455 1.5208-3.4773 2.3464-5.1932-1.2804-0.4594-2.5845-0.51759-3.9045-0.16555-2.5835 0.67797-4.8608 2.7481-6.5667 6.1715zm13.857-21.826c-2.0615 2.6091-3.0117 5.2464-2.8948 7.7647 0.13145 2.8721 1.5356 5.0968 4.0372 6.7253 1.8613 1.2117 3.7925 1.741 5.8174 1.6618 3.0354-0.14781 5.5596-1.6342 7.8097-4.4821 1.4633-1.852 2.3166-3.7202 2.5855-5.686 0.051792-0.40699 0.075974-0.8168 0.062875-1.227-0.011527-2.615-0.98364-4.9464-3.0954-6.9542-1.6225-1.5426-3.4817-2.4054-5.6149-2.5-3.1303-0.11254-6.1427 1.4516-8.7074 4.6975zm16.796-17.476c-1.6507 1.4138-2.8427 2.9628-3.5735 4.5754-1.1039 2.3867-0.95829 4.3275 0.3106 5.8004 6.768e-8 7.8617e-8 1.3539e-7 1.572e-7 2.031e-7 2.3579e-7 0.082901 0.096231 0.1706 0.19056 0.26308 0.28301 0.084803 0.084782 0.1714 0.16455 0.25966 0.23973 2.6149e-8 2.2277e-8 5.2299e-8 4.4554e-8 7.8448e-8 6.6832e-8 0.3564 0.30357 0.73989 0.53236 1.1431 0.71377 1.5442 0.64425 3.5165 0.23039 6.0127-1.1523 1.5614-0.9517 3.1394-1.8613 4.7315-2.7284 1.3711-0.65041 2.2977-0.68409 2.7512-0.11391 0.21013 0.26423 0.31177 0.58193 0.31528 0.92045-0.0087545 0.9172-0.65488 1.8841-1.9316 2.971-2.0288 1.7271-3.7982 2.2148-5.4374 1.3864-0.80668 1.0669-1.5915 2.1452-2.3539 3.2339-0.24696 0.35259-0.4916 0.70632-0.73394 1.0611 0.76458 0.40124 1.5813 0.60839 2.449 0.65392 5.333e-8 2.7922e-9 1.0666e-7 5.5845e-9 1.5999e-7 8.3765e-9 0.19461 0.010203 0.39182 0.012266 0.59166 0.0065456 2.3823-0.086356 4.7612-1.2479 7.3279-3.4525 1.5198-1.3054 2.7094-2.6653 3.5814-4.1061 0.77905-1.2675 1.2096-2.4443 1.2715-3.5545 0.061926-1.1103-0.2446-2.1541-0.94261-3.1294-1.0842-1.4746-2.7928-2.0311-5.1584-1.5518-0.28924 0.063372-0.60882 0.14881-0.95646 0.25986-0.99324 0.31728-2.7389 1.1536-5.1643 2.6576-0.36654 0.21858-0.5962 0.36916-0.72036 0.45286-1.6345 0.98848-2.7292 1.2256-3.278 0.61985-0.7635-0.84272-0.25171-2.1 1.5907-3.6717 0.098482-0.084012 0.1971-0.16787 0.29584-0.25156 1.6405-1.2973 3.1732-1.5827 4.5327-0.91376 1.0848-1.3718 2.2054-2.7258 3.3611-4.0603-1.4229-0.73538-3.0327-0.88886-4.8069-0.42477s-3.7129 1.5464-5.7316 3.2753zm132.12-19.282c-0.75879-0.3384-1.5031-0.60922-2.23-0.81358-1.46e-7 -4.0993e-8 -2.9201e-7 -8.1992e-8 -4.3802e-7 -1.2299e-7 -2.1865-0.61393-4.2084-0.62611-6.018-0.072189-2.7508 0.84012-4.5553 2.7541-5.5095 5.582-0.70997 2.1041-0.71606 4.1147-0.13824 6.0554 0.72001 2.3364 2.1838 4.1349 4.4432 5.5106 1.4066e-7 8.5644e-8 2.8132e-7 1.7129e-7 4.2197e-7 2.5693e-7 0.54788 0.3328 1.1432 0.64142 1.7879 0.92866 2.1507 0.95828 4.1922 1.3362 6.1626 1.1134 0.40699-0.049889 0.78643-0.13953 1.1806-0.25312 2.5308-0.65445 4.5519-2.1695 5.9788-4.7099 1.0963-1.9518 1.4755-3.966 1.0427-6.0568-0.66062-3.0616-2.918-5.5977-6.7001-7.2845zm21.099 11.995c-1.7764-1.2517-3.5706-2.0255-5.313-2.3369-2.7531-0.51407-4.6642 0.22011-5.7549 2.0521-0.30902 0.51906-0.50865 1.0359-0.60425 1.5792-0.24454 1.6552 0.666 3.4803 2.6208 5.5599 1.3069 1.2795 2.5771 2.5851 3.8097 3.9148 0.96807 1.1689 1.2069 2.042 0.7661 2.6219-0.20429 0.26877-0.46544 0.46205-0.79268 0.54879-0.89115 0.21733-2.0092-0.18676-3.3775-1.1565-2.1743-1.541-3.0832-3.1365-2.6841-4.9292-1.6246-0.68266-3.2589-1.324-4.9007-1.9236-0.24612 1.0281-0.21427 2.0464 0.084772 3.0964 0.67068 2.2886 2.3837 4.3097 5.1537 6.2548 1.6402 1.1517 3.2515 1.9696 4.8628 2.4596 1.4204 0.44259 2.672 0.57383 3.7684 0.36457s2.0378-0.75896 2.8112-1.6756c1.1623-1.4139 1.2811-3.2068 0.23414-5.3816-0.13264-0.26473-0.29413-0.55343-0.48736-0.86302-0.55208-0.88454-1.7925-2.3704-3.8473-4.351-0.30209-0.30145-0.52834-0.50365-0.64005-0.60335-1.3607-1.3406-1.8357-2.327-1.3836-3.0079 0.62895-0.94737 1.9486-0.77752 3.9256 0.62066 0.10568 0.074738 0.21124 0.14964 0.31668 0.22472 1.6614 1.2701 2.3157 2.6852 2.0025 4.1676 1.6046 0.71918 3.2006 1.4778 4.7863 2.2758 0.36241-1.5602 0.11474-3.1582-0.77193-4.7636-0.88668-1.6053-2.413-3.2178-4.5853-4.7485 3e-12 2.2e-12 6e-12 4.1e-12 1e-11 6.3e-12zm34.728 37.036c-1.7372-2.8356-3.8846-4.6376-6.2884-5.397-2.741-0.86776-5.3136-0.31758-7.7054 1.4684-1.7796 1.3289-2.9429 2.9589-3.5672 4.8867-0.4543 1.45-0.54923 2.9015-0.29475 4.3711 0.25448 1.4697 0.85863 2.9575 1.8066 4.5043 1.2329 2.0118 2.6912 3.4566 4.4427 4.3871 0.36397 0.189 0.74012 0.35308 1.1295 0.48231 2.4575 0.89148 4.9807 0.78451 7.5943-0.5034 2.008-0.9895 3.46-2.436 4.2855-4.4052 0.59331-1.4494 0.78417-3.0097 0.55539-4.655s-0.87745-3.3755-1.9581-5.1394zm16.238 42.359c-0.61391-3.3213-1.9872-5.8162-3.9837-7.4058-2.2726-1.8114-4.9307-2.2034-7.8877-1.3658-1.9657 0.55678-3.5329 1.5316-4.7396 2.8593-1.0424 1.1521-1.715 2.4528-2.038 3.9203-0.32301 1.4675-0.29607 3.102 0.053632 4.9504 0.022632 0.11963 0.045061 0.2393 0.067285 0.35901 0.50471 2.3293 1.5714 4.1565 3.2705 5.5204-0.66217 0.34562-1.3259 0.68645-1.9911 1.0225 0.099349 0.81368 0.18939 1.6285 0.2701 2.4442l9.739-0.96361c-0.33822-3.4184-0.82687-6.8219-1.4641-10.197l-3.3554 0.63356c0.28441 1.5067 0.53833 3.0193 0.7616 4.5365l-0.206 0.030323c-0.56252 0.082801-1.0883-0.0087648-1.5764-0.26452-1.0534-0.5469-1.6998-1.6027-1.9905-3.1854-0.17858-0.97223-0.14567-1.8198 0.13114-2.5854 0.60444-1.6362 2.0929-2.756 4.5005-3.3057 0.60623-0.13842 1.2014-0.22821 1.7775-0.25833 1.481-0.097094 2.6658 0.15946 3.5472 0.78203 0.88138 0.62256 1.4592 1.6112 1.7085 2.9507 0.11647 0.62594 0.15441 1.2183 0.10441 1.7685-0.18968 1.7349-1.1174 2.83-2.7022 3.2885 0.46007 1.8388 0.87712 3.6929 1.2502 5.5603 1.2992-0.40356 2.3759-1.1418 3.2185-2.2172 1.6558-2.0959 2.2294-5.1187 1.5346-8.8777zm-236.42 74.374 16.652-7.5275c-0.7358-1.6287-1.4313-3.2764-2.0856-4.9408l-6.7217 2.6442c-0.51097-1.2991-0.99839-2.6077-1.462-3.9247 1.857-1.9761 3.7591-3.8854 5.7027-5.726-0.59952-1.8972-1.1469-3.8108-1.6411-5.7377-2.2547 2.0462-4.4558 4.1886-6.5978 6.424-0.22439-0.31463-0.44747-0.63087-0.66922-0.94873-0.25276-0.25016-0.50472-0.50198-0.75585-0.75548-1.3689-1.1993-2.7892-1.6493-4.2853-1.2619-0.29234 0.075711-0.58676 0.19551-0.87722 0.34905-1.4758 0.74782-2.373 2.1104-2.6389 4.0749-0.030676 0.27854-0.055389 0.53704-0.067171 0.81132-0.04187 1.3663 0.3421 3.3943 1.2518 6.008 1.2403 3.5638 2.6403 7.0722 4.1953 10.511zm-11.154-48.85 3.4551-0.076642c-0.019492-0.87314-0.029355-1.7466-0.029528-2.6202-0.0000063231-3.2267 0.12892-6.4531 0.38543-9.6691 2.5966 3.4436 5.3388 6.6711 8.201 9.6691 1.0381 1.0862 2.0922 2.1416 3.161 3.166l3.1213-0.092779c-0.029858-1.0245-0.044385-2.049-0.04344-3.0732 0.000046767-5.1489 0.37491-10.303 1.1164-15.404l-3.4617-0.50352c-0.59341 4.0812-0.95937 8.1957-1.0941 12.316-3.7472-4.121-7.2634-8.6584-10.484-13.578l-3.1129-0.44195c-0.82796 5.8306-1.2457 11.72-1.2457 17.611 0.00037825 0.89924 0.010699 1.7983 0.030902 2.6969zm3.1792-30.87c5.2904 4.1741 10.773 7.9606 16.404 11.347 0.24795-1.5587 0.53022-3.1119 0.84657-4.6578-1.1345-0.72176-2.2625-1.4594-3.3836-2.2128 0.5476-2.5035 1.1819-4.9874 1.9021-7.445 1.3423-0.11398 2.683-0.21097 4.0217-0.29098 0.56561-1.8389 1.1813-3.6615 1.8466-5.4645-6.5445 0.13535-13.156 0.69342-19.793 1.6738-0.6836 2.3318-1.2987 4.6831-1.8449 7.0501zm61.68-81.277 8.7872 16.03c1.3139-0.72039 2.6427-1.4128 3.9851-2.0762l-6.6057-13.364c0.026716-0.013206 0.053437-0.026402 0.080163-0.039588 4.105 3.5156 7.9995 7.1978 11.669 11.032 0.16124-0.069101 0.32266-0.13779 0.48423-0.20606 0.95848-0.40604 1.9235-0.79759 2.8945-1.1746-0.030498-5.3185 0.21206-10.686 0.72758-16.082 0.047213-0.015424 0.094435-0.030819 0.14167-0.046184l4.6113 14.175c1.6966-0.55192 3.4081-1.0609 5.1321-1.5265l-4.9-17.64c-3.1633 0.85514-6.2936 1.8352-9.3813 2.9388-0.32955 3.9941-0.50955 7.9703-0.53994 11.92-1.1385-1.2083-2.2984-2.4027-3.4797-3.5826-1.6067-1.6048-3.2523-3.1827-4.9359-4.7327-2.9912 1.3438-5.9275 2.8061-8.8011 4.3812zm32.16-12.171 4.0342 17.83c5.3303-1.2052 10.758-2.0027 16.211-2.3829l-0.24608-3.5312c-3.7916 0.26429-7.5706 0.72391-11.315 1.3759l-0.69676-4c3.054-0.53186 6.1298-0.9402 9.2169-1.2236l-0.31406-3.4213c-3.1794 0.29186-6.3471 0.71244-9.4924 1.2603l-0.63602-3.6513c4.1232-0.71833 8.2834-1.2244 12.459-1.5154l-0.24608-3.5312c-6.3841 0.4448-12.733 1.3784-18.974 2.7912zm22.49-2.9865 0.75773 18.266c1.3847-0.057493 2.7702-0.08803 4.1553-0.091452l-0.030199-12.285c0.048592-0.00011943 0.097185-0.000209 0.14578-0.00026869 0.048634 0.060655 0.097193 0.12134 0.14568 0.18206 3.2216 4.0343 6.1138 8.2001 8.6714 12.456 1.5208 0.12393 3.0392 0.28031 4.5536 0.46894l2.2605-18.142c-1.6102-0.20067-3.2244-0.37012-4.8413-0.5082l-0.91428 10.705c-0.018597-0.0015883-0.037194-0.0031721-0.055792-0.0047514-2.4216-3.8-5.1063-7.5242-8.0507-11.144-0.54108-0.0070415-1.0822-0.010564-1.6234-0.010562-1.7255-0.0000070957-3.4507 0.035819-5.1743 0.10729zm23.905 1.3025-0.54155 3.5823c2.1755 0.32892 4.3421 0.7167 6.4967 1.1629l-2.9722 14.353c1.75 0.36211 3.4906 0.76793 5.2191 1.2171l3.6883-14.185c2.1103 0.54877 4.2059 1.1545 6.2837 1.8169l1.1001-3.4513c-6.2947-2.0066-12.746-3.5089-19.274-4.4961zm65.461 31.297-2.3332 2.5501c1.322 1.2096 2.6172 2.4484 3.8845 3.7156 1.6319 1.632 3.2169 3.3105 4.7528 5.0327-3.0636-0.35967-6.0987-0.5888-9.0952-0.69029-2.7133-0.091947-5.3952-0.079579-8.0389 0.032716l-2.0913 2.3197c1.3627 1.2285 2.6933 2.4917 3.9896 3.7882 3.0698 3.0695 5.9535 6.3313 8.6301 9.7564l2.7564-2.1539c-2.5393-3.2495-5.2595-6.3569-8.1441-9.2996 5.5671 0.13678 11.277 0.73139 17.058 1.8037l2.4708-1.9444c-3.0578-3.8856-6.3455-7.5909-9.8437-11.089-1.3035-1.3034-2.6357-2.5776-3.9953-3.8216zm29.425 40.509-16.644 7.5603c0.37845 0.83356 0.74583 1.6719 1.102 2.5147 1.5342 3.6217 2.8617 7.3365 3.9787 11.117l3.4739-1.0266c-0.90328-3.0572-1.9397-6.0733-3.1075-9.0354l13.637-5.3728c-0.36988-0.93925-0.75142-1.8741-1.1446-2.8043-0.419-0.99019-0.8509-1.9747-1.2955-2.9533zm11.095 50.488c-6.1171-2.8295-12.33-5.2354-18.596-7.2171 0.12167 1.5734 0.2086 3.1493 0.26055 4.7259 1.2714 0.43775 2.5401 0.89249 3.8057 1.3642 0.013863 0.71309 0.020807 1.4263 0.020811 2.1394 0.001123 1.8448-0.045974 3.6902-0.14054 5.5339-1.2792 0.42114-2.5607 0.82525-3.8442 1.2124-0.12424 1.918-0.30169 3.8338-0.53141 5.7444 6.3339-1.6505 12.636-3.7182 18.865-6.2101 0.10811-2.0908 0.16299-4.1851 0.16387-6.2807 0.0000014027-0.33749-0.001368-0.67497-0.0041068-1.0124zm-1.2484 18.477-18.091-2.5904c-0.68949 4.8119-1.7097 9.583-3.0453 14.265l3.4833 0.99351c0.87566-3.0699 1.6201-6.1769 2.2293-9.3087l14.385 2.7969c0.39706-2.0429 0.74346-4.0959 1.0384-6.1566zm-6.3632 25.33c-4.7384-4.7889-9.7119-9.2211-14.881-13.277-0.43874 1.5173-0.91063 3.0251-1.4152 4.5218 1.0368 0.85609 2.0653 1.727 3.0851 2.6125-0.85138 2.4189-1.7856 4.8084-2.8006 7.162-1.3461-0.049927-2.6885-0.11626-4.027-0.19894-0.78601 1.7592-1.619 3.4966-2.498 5.2092 6.5121 0.65113 13.141 0.89893 19.846 0.73659 0.96186-2.2289 1.8592-4.4854 2.6908-6.7658zm-6.761 15.3-3.2074-1.6809c-1.0256 1.9569-2.1049 3.8859-3.2367 5.784l-12.583-7.504c-0.91341 1.5314-1.8655 3.0384-2.8554 4.5188l12.184 8.1388c-1.2113 1.8138-2.4729 3.5947-3.7839 5.3398l2.8961 2.1769c3.9798-5.3008 7.5165-10.917 10.586-16.773zm-213.82 5.5564c-0.82474-1.3456-0.99729-2.6245-0.53135-3.792 0.46594-1.1676 1.5702-2.2238 3.29-3.187 1.7199-0.96319 3.1894-1.3595 4.4034-1.2216 1.214 0.13789 2.1723 0.81016 2.9159 2.0229 0.75561 1.2323 0.92672 2.4019 0.50099 3.5542s-1.4481 2.2874-3.0934 3.3895l-0.39774 0.2664c-1.5384 0.94264-2.9002 1.3434-4.0881 1.1752-1.1878-0.16819-2.2016-0.90553-2.9998-2.2077zm8.1311-138.94c0.97843-1.2383 2.1193-1.8419 3.3765-1.8078 1.2572 0.034099 2.6307 0.70565 4.1296 1.9875s2.379 2.5248 2.6687 3.7128c0.28973 1.188-0.011134 2.3212-0.89498 3.4398-0.8981 1.1367-1.9394 1.7023-3.1694 1.7003-1.23-0.0020174-2.6485-0.5714-4.2499-1.7377l-0.38713-0.28194c-1.4149-1.1207-2.26-2.262-2.5114-3.4354-0.25143-1.1734 0.091036-2.379 1.0379-3.5774zm144.75-35.732c1.4421 0.64305 2.3085 1.6003 2.5851 2.8272 0.27662 1.2269-0.036288 2.7233-0.90972 4.4914s-1.8613 2.9269-2.9407 3.5005c-1.0794 0.57357-2.2504 0.56166-3.5504-0.017685-0.73472-0.32743-1.3085-0.74046-1.7258-1.2484-1.0817-1.319-1.1248-3.2901-0.066421-5.9471l0.17721-0.44487c1.041-2.3343 2.4142-3.5721 4.1382-3.6536 0.71048-0.033549 1.4779 0.12939 2.2926 0.49269zm54.269 47.663c0.8245 1.3457 0.99716 2.6249 0.53117 3.793s-1.5704 2.2252-3.2908 3.1893c-1.7204 0.96409-3.1906 1.3609-4.4054 1.2229-1.2148-0.13805-2.1743-0.81125-2.919-2.0265-0.75675-1.2349-0.92823-2.4072-0.5019-3.5608s1.4502-2.2884 3.0975-3.389l0.3982-0.26605c1.5401-0.94119 2.9029-1.3405 4.0909-1.1715 1.1881 0.16898 2.2014 0.9065 2.9993 2.2088zm-216.62 107.94c-0.53844-1.3686-1.0524-2.7468-1.5414-4.1337-0.45691-1.3225-0.60781-2.3815-0.47354-3.1586 0.13428-0.77712 0.55365-1.2724 1.2484-1.4911 0.77946-0.24531 1.4669-0.10182 2.0659 0.41684 0.59892 0.51866 1.1093 1.4126 1.5569 2.6822 0.47053 1.3345 0.96492 2.6606 1.4829 3.9774zm-3.2543-74.464c2.2971-0.35494 4.5922-0.66007 6.8835-0.91537-0.46651 1.6645-0.89498 3.3399-1.2852 5.0244-1.8873-1.3247-3.754-2.6945-5.5984-4.109zm236.16 31.768c-2.152 0.87892-4.3136 1.7075-6.4831 2.4861 0.057275-1.4563 0.08583-2.9135 0.085325-4.3705-9.2319e-7 -0.27007-0.00096731-0.54014-0.0028982-0.81021 0.66977 0.2653 1.3386 0.53537 2.0065 0.81021 1.47 0.60448 2.9349 1.2327 4.3942 1.8845zm-8.3219 41.956c-2.3228 0.071097-4.6376 0.093648-6.9427 0.067932 0.66634-1.5958 1.2968-3.2068 1.8908-4.8313 1.7102 1.5463 3.3947 3.1343 5.052 4.7633z"/>
  </g>
 </g>
</svg>
